<?xml version="1.0" encoding="UTF-8" standalone="no"?>
<!-- Created with Inkscape (http://www.inkscape.org/) -->

<svg
   xmlns:dc="http://purl.org/dc/elements/1.1/"
   xmlns:cc="http://creativecommons.org/ns#"
   xmlns:rdf="http://www.w3.org/1999/02/22-rdf-syntax-ns#"
   xmlns:svg="http://www.w3.org/2000/svg"
   xmlns="http://www.w3.org/2000/svg"
   xmlns:sodipodi="http://sodipodi.sourceforge.net/DTD/sodipodi-0.dtd"
   xmlns:inkscape="http://www.inkscape.org/namespaces/inkscape"
   width="200"
   height="50"
   id="svg2"
   version="1.1"
   inkscape:version="0.48.2 r9819"
   sodipodi:docname="it-logo.svg">
  <defs
     id="defs4" />
  <sodipodi:namedview
     id="base"
     pagecolor="#ffffff"
     bordercolor="#666666"
     borderopacity="1.0"
     inkscape:pageopacity="0"
     inkscape:pageshadow="2"
     inkscape:zoom="3.959798"
     inkscape:cx="110.31535"
     inkscape:cy="10.147779"
     inkscape:document-units="px"
     inkscape:current-layer="layer1"
     showgrid="false"
     inkscape:window-width="1424"
     inkscape:window-height="897"
     inkscape:window-x="1022"
     inkscape:window-y="253"
     inkscape:window-maximized="0" />
  <metadata
     id="metadata7">
    <rdf:RDF>
      <cc:Work
         rdf:about="">
        <dc:format>image/svg+xml</dc:format>
        <dc:type
           rdf:resource="http://purl.org/dc/dcmitype/StillImage" />
      </cc:Work>
    </rdf:RDF>
  </metadata>
  <g
     inkscape:label="Calque 1"
     inkscape:groupmode="layer"
     id="layer1"
     transform="translate(0,-1002.3622)">
    <path
       style="fill:#fffcff;fill-opacity:1;fill-rule:nonzero;stroke:none"
       d="M 100 0 L 4.6875 0.03125 L 6.59375 0.96875 C 9.6209689 2.48695 11.233865 3.62665 13.5 5.78125 C 16.589882 8.71895 18.738708 12.1089 20.0625 16.125 C 20.883318 18.6152 21.17167 20.21775 21.46875 24.40625 C 21.86466 29.98825 22.921763 32.47525 26.375 35.90625 C 29.443087 38.95475 33.290283 40.85575 38.09375 41.65625 C 39.639041 41.91425 52.177163 41.98 99.75 42 C 165.74465 42.0272 161.92163 42.1173 166.4375 40.4375 C 169.31206 39.3682 171.11977 38.2568 173.25 36.3125 C 176.79054 33.081 178.17832 29.9046 178.59375 23.9375 C 178.91637 19.3037 179.65101 16.25055 181.21875 13.03125 C 183.82398 7.68135 187.5708 3.9159 193.09375 1.125 L 195.3125 0 L 100 0 z M 32.78125 7.5625 L 34.9375 7.5625 L 34.9375 10.25 L 32.78125 10.25 L 32.78125 7.5625 z M 90.53125 7.5625 L 92.6875 7.5625 L 92.6875 25.625 L 90.53125 25.625 L 90.53125 23.65625 C 90.078115 24.429949 89.507803 25.027139 88.8125 25.40625 C 88.124992 25.777625 87.281242 25.9375 86.3125 25.9375 C 84.726557 25.9375 83.437496 25.315891 82.4375 24.0625 C 81.445311 22.809112 80.968749 21.167567 80.96875 19.125 C 80.968749 17.082446 81.445311 15.440901 82.4375 14.1875 C 83.437496 12.934122 84.726557 12.312513 86.3125 12.3125 C 87.281242 12.312513 88.124992 12.495901 88.8125 12.875 C 89.507803 13.246387 90.078115 13.820064 90.53125 14.59375 L 90.53125 7.5625 z M 97.125 7.5625 L 99.28125 7.5625 L 99.28125 25.625 L 97.125 25.625 L 97.125 7.5625 z M 158.03125 7.5625 L 160.1875 7.5625 L 158.8125 14.65625 C 159.35937 13.928986 160.05468 13.355309 160.90625 12.9375 C 161.7578 12.511979 162.65624 12.312513 163.59375 12.3125 C 164.74999 12.312513 165.64843 12.599805 166.28125 13.21875 C 166.92186 13.83772 167.21874 14.721899 167.21875 15.84375 C 167.21874 16.122291 167.1953 16.432793 167.15625 16.75 C 167.12499 17.067225 167.10155 17.409883 167.03125 17.78125 L 165.46875 25.625 L 163.3125 25.625 L 164.84375 17.84375 C 164.91405 17.48012 164.96093 17.15354 165 16.875 C 165.03905 16.596478 165.06249 16.381236 165.0625 16.21875 C 165.06249 15.568854 164.85155 15.082399 164.4375 14.71875 C 164.02343 14.355123 163.46093 14.156261 162.71875 14.15625 C 161.56249 14.156261 160.57031 14.538813 159.71875 15.3125 C 158.87499 16.086207 158.3125 17.12192 158.0625 18.40625 L 156.65625 25.625 L 154.5 25.625 L 158.03125 7.5625 z M 120.625 8.9375 L 122.78125 8.9375 L 122.0625 12.625 L 126.375 12.625 L 126.0625 14.28125 L 121.75 14.28125 L 120.375 21.34375 C 120.32812 21.606811 120.27343 21.822053 120.25 22 C 120.22656 22.177954 120.21875 22.305673 120.21875 22.40625 C 120.21875 22.901419 120.35937 23.27563 120.65625 23.5 C 120.96093 23.724374 121.46093 23.812502 122.125 23.8125 L 124.3125 23.8125 L 123.9375 25.625 L 121.875 25.625 C 120.59375 25.625 119.63281 25.370167 119 24.875 C 118.375 24.379835 118.0625 23.630809 118.0625 22.625 C 118.0625 22.447053 118.07031 22.240152 118.09375 22.03125 C 118.11719 21.814618 118.17187 21.599074 118.21875 21.34375 L 119.59375 14.28125 L 117.78125 14.28125 L 118.125 12.625 L 119.90625 12.625 L 120.625 8.9375 z M 43.59375 12.3125 C 44.390618 12.312513 45.140617 12.352709 45.84375 12.46875 C 46.546866 12.584818 47.18749 12.767904 47.78125 13 L 47.78125 15.03125 C 47.171865 14.721782 46.562491 14.467251 45.90625 14.3125 C 45.249992 14.157772 44.546868 14.093762 43.84375 14.09375 C 42.773432 14.093762 41.976558 14.237558 41.4375 14.5625 C 40.906246 14.887464 40.656247 15.381354 40.65625 16.03125 C 40.656247 16.526426 40.835934 16.93249 41.21875 17.21875 C 41.601558 17.497289 42.374995 17.744688 43.53125 18 L 44.28125 18.1875 C 45.812491 18.51246 46.890615 18.966759 47.53125 19.5625 C 48.179676 20.150516 48.499989 20.971289 48.5 22.03125 C 48.499989 23.238221 47.999989 24.202186 47.03125 24.90625 C 46.070304 25.610315 44.749992 25.9375 43.0625 25.9375 C 42.35937 25.9375 41.640621 25.889265 40.875 25.75 C 40.117185 25.618471 39.312498 25.395794 38.46875 25.125 L 38.46875 22.9375 C 39.265623 23.347562 40.03906 23.666104 40.8125 23.875 C 41.585933 24.076163 42.367182 24.156251 43.125 24.15625 C 44.140618 24.156251 44.921867 23.996679 45.46875 23.65625 C 46.015616 23.308088 46.281241 22.814198 46.28125 22.1875 C 46.281241 21.607231 46.085929 21.153234 45.6875 20.84375 C 45.296867 20.534276 44.42968 20.255024 43.09375 19.96875 L 42.34375 19.78125 C 41.007809 19.502725 40.031247 19.072543 39.4375 18.5 C 38.843748 17.919734 38.562499 17.130816 38.5625 16.125 C 38.562499 14.902568 38.999998 13.977892 39.875 13.3125 C 40.749996 12.647133 41.98437 12.312513 43.59375 12.3125 z M 56.53125 12.3125 C 58.429679 12.312513 59.87499 12.775154 60.8125 13.75 C 61.749988 14.72487 62.218737 16.206843 62.21875 18.1875 L 62.21875 25.625 L 60.0625 25.625 L 60.0625 23.65625 C 59.570303 24.445423 58.953116 25.027139 58.21875 25.40625 C 57.484367 25.777625 56.562493 25.9375 55.5 25.9375 C 54.156246 25.9375 53.109372 25.5865 52.3125 24.84375 C 51.523436 24.093265 51.124999 23.097143 51.125 21.84375 C 51.124999 20.381466 51.609373 19.274006 52.59375 18.53125 C 53.585934 17.788508 55.070307 17.406258 57.03125 17.40625 L 60.0625 17.40625 L 60.0625 17.1875 C 60.06249 16.204913 59.71874 15.471362 59.0625 14.9375 C 58.414054 14.395923 57.49218 14.125012 56.3125 14.125 C 55.562494 14.125012 54.835932 14.197061 54.125 14.375 C 53.414059 14.552962 52.749997 14.83161 52.09375 15.1875 L 52.09375 13.21875 C 52.882809 12.917021 53.632809 12.678266 54.375 12.53125 C 55.117182 12.376524 55.828119 12.312513 56.53125 12.3125 z M 73 12.3125 C 74.507802 12.312513 75.632801 12.759075 76.40625 13.6875 C 77.179675 14.608211 77.562487 15.986281 77.5625 17.78125 L 77.5625 25.625 L 75.40625 25.625 L 75.40625 17.84375 C 75.406239 16.613579 75.171864 15.673731 74.6875 15.0625 C 74.203115 14.45129 73.468741 14.156261 72.5 14.15625 C 71.335931 14.156261 70.421869 14.514998 69.75 15.25 C 69.07812 15.985023 68.749996 17.012394 68.75 18.28125 L 68.75 25.625 L 66.5625 25.625 L 66.5625 12.625 L 68.75 12.625 L 68.75 14.625 C 69.26562 13.843577 69.867182 13.261861 70.5625 12.875 C 71.265618 12.488164 72.08593 12.312513 73 12.3125 z M 108.40625 12.3125 C 110.30468 12.312513 111.71874 12.775154 112.65625 13.75 C 113.59374 14.72487 114.06249 16.206843 114.0625 18.1875 L 114.0625 25.625 L 111.90625 25.625 L 111.90625 23.65625 C 111.41405 24.445423 110.79687 25.027139 110.0625 25.40625 C 109.32812 25.777625 108.43749 25.9375 107.375 25.9375 C 106.03125 25.9375 104.95312 25.5865 104.15625 24.84375 C 103.36719 24.093265 102.96875 23.097143 102.96875 21.84375 C 102.96875 20.381466 103.45312 19.274006 104.4375 18.53125 C 105.42968 17.788508 106.91406 17.406258 108.875 17.40625 L 111.90625 17.40625 L 111.90625 17.1875 C 111.90624 16.204913 111.56249 15.471362 110.90625 14.9375 C 110.2578 14.395923 109.33593 14.125012 108.15625 14.125 C 107.40624 14.125012 106.67968 14.197061 105.96875 14.375 C 105.25781 14.552962 104.59375 14.83161 103.9375 15.1875 L 103.9375 13.21875 C 104.72656 12.917021 105.47656 12.678266 106.21875 12.53125 C 106.96093 12.376524 107.70312 12.312513 108.40625 12.3125 z M 134.5 12.3125 C 135.98436 12.312513 137.15624 12.742997 138.03125 13.625 C 138.91405 14.507027 139.37499 15.70201 139.375 17.1875 C 139.37499 17.543409 139.32811 17.902448 139.28125 18.3125 C 139.23436 18.71483 139.18749 19.160788 139.09375 19.625 L 129.0625 19.625 C 129.01562 19.919011 128.98437 20.142292 128.96875 20.3125 C 128.95312 20.482719 128.9375 20.626213 128.9375 20.75 C 128.9375 21.825444 129.27343 22.661993 129.9375 23.25 C 130.60937 23.838012 131.53124 24.125001 132.75 24.125 C 133.68749 24.125001 134.60155 24.0214 135.4375 23.8125 C 136.27343 23.603604 137.03124 23.308575 137.75 22.90625 L 137.34375 25.03125 C 136.5703 25.340729 135.76561 25.56401 134.9375 25.71875 C 134.11718 25.873489 133.28905 25.9375 132.4375 25.9375 C 130.61718 25.9375 129.20312 25.515055 128.21875 24.65625 C 127.24219 23.78971 126.78125 22.554834 126.78125 20.96875 C 126.78125 19.614785 127.01562 18.379304 127.5 17.21875 C 127.99219 16.050476 128.71093 15.006724 129.65625 14.09375 C 130.26562 13.521226 130.97656 13.090742 131.8125 12.78125 C 132.65624 12.471784 133.55468 12.312513 134.5 12.3125 z M 149.65625 12.3125 C 150.26562 12.312513 150.86718 12.360748 151.46875 12.5 C 152.0703 12.631542 152.65624 12.854219 153.28125 13.125 L 152.875 15.21875 C 152.35936 14.847386 151.80468 14.591949 151.21875 14.40625 C 150.64061 14.220574 150.03124 14.125012 149.40625 14.125 C 148.71874 14.125012 148.06249 14.228915 147.4375 14.46875 C 146.82031 14.708607 146.29687 15.059003 145.875 15.5 C 145.20312 16.173127 144.67968 16.969782 144.3125 17.875 C 143.94531 18.780233 143.78125 19.689134 143.78125 20.65625 C 143.78125 21.824537 144.07031 22.708717 144.65625 23.28125 C 145.25 23.853788 146.14062 24.125001 147.34375 24.125 C 147.93749 24.125001 148.55468 24.052952 149.21875 23.875 C 149.89062 23.697051 150.58593 23.418403 151.3125 23.0625 L 150.90625 25.1875 C 150.28124 25.44282 149.66405 25.626208 149 25.75 C 148.34374 25.881528 147.66406 25.9375 146.96875 25.9375 C 145.22656 25.9375 143.875 25.515055 142.9375 24.65625 C 142 23.78971 141.53125 22.570308 141.53125 20.96875 C 141.53125 19.622522 141.76562 18.379606 142.25 17.25 C 142.74219 16.112674 143.47656 15.092737 144.4375 14.1875 C 145.09375 13.568554 145.86718 13.098479 146.75 12.78125 C 147.63281 12.464047 148.60937 12.312513 149.65625 12.3125 z M 32.78125 12.625 L 34.9375 12.625 L 34.9375 25.625 L 32.78125 25.625 L 32.78125 12.625 z M 86.84375 14.09375 C 85.703119 14.093762 84.812495 14.540022 84.15625 15.4375 C 83.507809 16.327262 83.187496 17.554401 83.1875 19.125 C 83.187496 20.695611 83.507809 21.946264 84.15625 22.84375 C 84.812495 23.733504 85.703119 24.156251 86.84375 24.15625 C 87.984367 24.156251 88.874991 23.733504 89.53125 22.84375 C 90.187489 21.946264 90.531239 20.695611 90.53125 19.125 C 90.531239 17.554401 90.187489 16.327262 89.53125 15.4375 C 88.874991 14.540022 87.984367 14.093762 86.84375 14.09375 z M 134.15625 14.125 C 133.08593 14.125012 132.13281 14.451894 131.3125 15.125 C 130.49218 15.79039 129.89062 16.738579 129.46875 17.96875 L 137.21875 17.96875 C 137.24218 17.844966 137.24218 17.694037 137.25 17.5625 C 137.26561 17.43098 137.28124 17.319037 137.28125 17.1875 C 137.28124 16.243598 136.99999 15.486836 136.4375 14.9375 C 135.8828 14.388186 135.11718 14.125012 134.15625 14.125 z M 57.90625 19.09375 C 56.164056 19.093757 54.95312 19.29292 54.28125 19.6875 C 53.609371 20.082091 53.281246 20.735857 53.28125 21.6875 C 53.281246 22.445727 53.531246 23.051258 54.03125 23.5 C 54.539058 23.941009 55.226557 24.156251 56.09375 24.15625 C 57.289055 24.156251 58.249991 23.741846 58.96875 22.90625 C 59.695302 22.062923 60.06249 20.955161 60.0625 19.5625 L 60.0625 19.09375 L 57.90625 19.09375 z M 109.75 19.09375 C 108.00781 19.093757 106.79687 19.29292 106.125 19.6875 C 105.45312 20.082091 105.125 20.735857 105.125 21.6875 C 105.125 22.445727 105.375 23.051258 105.875 23.5 C 106.38281 23.941009 107.07031 24.156251 107.9375 24.15625 C 109.1328 24.156251 110.09374 23.741846 110.8125 22.90625 C 111.53905 22.062923 111.90624 20.955161 111.90625 19.5625 L 111.90625 19.09375 L 109.75 19.09375 z "
       transform="translate(0,1002.3622)"
       id="path3841" />
  </g>
</svg>
